HIERARCHY
ROOT hip
{
  OFFSET 0.00112043 5.09927 -9.65472
  CHANNELS 6 Xposition Yposition Zposition Zrotation Xrotation Yrotation
  JOINT abdomen
  {
    OFFSET 0 -1.186 -1.5018
    CHANNELS 3 Zrotation Xrotation Yrotation
    JOINT abdomen2
    {
      OFFSET 0 9.964 0.2134
      CHANNELS 3 Zrotation Xrotation Yrotation
      JOINT chest
      {
        OFFSET 0 13.134 -3.2573
        CHANNELS 3 Zrotation Xrotation Yrotation
        JOINT neck
        {
          OFFSET 0 20.686 -1.6905
          CHANNELS 3 Zrotation Xrotation Yrotation
          JOINT head
          {
            OFFSET 0 7.238 -0.1237
            CHANNELS 3 Zrotation Xrotation Yrotation
            End Site
            {
              OFFSET 0 0 0
            }
          }
        }
        JOINT lCollar
        {
          OFFSET 1.7069 20.075 5.0056
          CHANNELS 3 Zrotation Xrotation Yrotation
          JOINT lShldr
          {
            OFFSET 13.6458 -0.047 -4.849
            CHANNELS 3 Zrotation Xrotation Yrotation
            JOINT lForeArm
            {
              OFFSET 28.3255 -0.9759 2.2888
              CHANNELS 3 Zrotation Xrotation Yrotation
              JOINT lHand
              {
                OFFSET 22.1583 -0.53 10.8316
                CHANNELS 3 Zrotation Xrotation Yrotation
                JOINT lThumb1
                {
                  OFFSET 0.786 0.112 2.5817
                  CHANNELS 3 Zrotation Xrotation Yrotation
                  JOINT lThumb2
                  {
                    OFFSET 0.3601 -0.878 4.2331
                    CHANNELS 3 Zrotation Xrotation Yrotation
                    JOINT lThumb2_End
                    {
                      OFFSET 1.8127 -1.216 2.2227
                      CHANNELS 3 Zrotation Xrotation Yrotation
                      End Site
                      {
                        OFFSET 0.0181 -0.0122 0.0222
                      }
                    }
                  }
                }
                JOINT lCarpal1
                {
                  OFFSET 0.9571 1.114 1.7695
                  CHANNELS 3 Zrotation Xrotation Yrotation
                  JOINT lIndex1
                  {
                    OFFSET 4.1246 0.487 4.1451
                    CHANNELS 3 Zrotation Xrotation Yrotation
                    JOINT lIndex2
                    {
                      OFFSET 3.4052 -1.454 2.7682
                      CHANNELS 3 Zrotation Xrotation Yrotation
                      JOINT lIndex2_End
                      {
                        OFFSET 1.4531 -1.795 1.2713
                        CHANNELS 3 Zrotation Xrotation Yrotation
                        End Site
                        {
                          OFFSET 0.0145 -0.0179 0.0127
                        }
                      }
                    }
                  }
                  JOINT lMid1
                  {
                    OFFSET 5.6954 0.21 2.1184
                    CHANNELS 3 Zrotation Xrotation Yrotation
                    JOINT lMid2
                    {
                      OFFSET 3.9766 -1.54 2.3863
                      CHANNELS 3 Zrotation Xrotation Yrotation
                      JOINT lMid2_End
                      {
                        OFFSET 1.4042 -1.926 1.125
                        CHANNELS 3 Zrotation Xrotation Yrotation
                        End Site
                        {
                          OFFSET 0.014 -0.0193 0.0113
                        }
                      }
                    }
                  }
                }
                JOINT lCarpal2
                {
                  OFFSET 2.0956 0.66 -0.3894
                  CHANNELS 3 Zrotation Xrotation Yrotation
                  JOINT lRing1
                  {
                    OFFSET 5.0395 -0.09 2.4971
                    CHANNELS 3 Zrotation Xrotation Yrotation
                    JOINT lRing2
                    {
                      OFFSET 3.7921 -1.552 1.4806
                      CHANNELS 3 Zrotation Xrotation Yrotation
                      JOINT lRing2_End
                      {
                        OFFSET 1.4655 -1.808 0.9609
                        CHANNELS 3 Zrotation Xrotation Yrotation
                        End Site
                        {
                          OFFSET 0.0147 -0.0181 0.0096
                        }
                      }
                    }
                  }
                  JOINT lPinky1
                  {
                    OFFSET 4.9141 -1.269 0.3591
                    CHANNELS 3 Zrotation Xrotation Yrotation
                    JOINT lPinky2
                    {
                      OFFSET 3.1477 -1.685 0.8462
                      CHANNELS 3 Zrotation Xrotation Yrotation
                      JOINT lPinky2_End
                      {
                        OFFSET 0.8055 -1.585 0.7955
                        CHANNELS 3 Zrotation Xrotation Yrotation
                        End Site
                        {
                          OFFSET 0.0081 -0.0158 0.008
                        }
                      }
                    }
                  }
                }
              }
            }
          }
        }
        JOINT rCollar
        {
          OFFSET -1.7069 20.075 5.0056
          CHANNELS 3 Zrotation Xrotation Yrotation
          JOINT rShldr
          {
            OFFSET -13.6458 -0.047 -4.849
            CHANNELS 3 Zrotation Xrotation Yrotation
            JOINT rForeArm
            {
              OFFSET -28.3255 -0.9759 2.2888
              CHANNELS 3 Zrotation Xrotation Yrotation
              JOINT rHand
              {
                OFFSET -22.1583 -0.53 10.8316
                CHANNELS 3 Zrotation Xrotation Yrotation
                JOINT rThumb1
                {
                  OFFSET -0.786 0.112 2.5817
                  CHANNELS 3 Zrotation Xrotation Yrotation
                  JOINT rThumb2
                  {
                    OFFSET -0.3601 -0.878 4.2331
                    CHANNELS 3 Zrotation Xrotation Yrotation
                    JOINT rThumb2_End
                    {
                      OFFSET -1.8127 -1.216 2.2227
                      CHANNELS 3 Zrotation Xrotation Yrotation
                      End Site
                      {
                        OFFSET -0.0181 -0.0122 0.0222
                      }
                    }
                  }
                }
                JOINT rCarpal1
                {
                  OFFSET -0.9571 1.114 1.7695
                  CHANNELS 3 Zrotation Xrotation Yrotation
                  JOINT rIndex1
                  {
                    OFFSET -4.1246 0.487 4.1451
                    CHANNELS 3 Zrotation Xrotation Yrotation
                    JOINT rIndex2
                    {
                      OFFSET -3.4052 -1.454 2.7682
                      CHANNELS 3 Zrotation Xrotation Yrotation
                      JOINT rIndex2_End
                      {
                        OFFSET -1.4531 -1.795 1.2713
                        CHANNELS 3 Zrotation Xrotation Yrotation
                        End Site
                        {
                          OFFSET -0.0145 -0.018 0.0127
                        }
                      }
                    }
                  }
                  JOINT rMid1
                  {
                    OFFSET -5.6954 0.21 2.1184
                    CHANNELS 3 Zrotation Xrotation Yrotation
                    JOINT rMid2
                    {
                      OFFSET -3.9766 -1.54 2.3863
                      CHANNELS 3 Zrotation Xrotation Yrotation
                      JOINT rMid2_End
                      {
                        OFFSET -1.4042 -1.926 1.125
                        CHANNELS 3 Zrotation Xrotation Yrotation
                        End Site
                        {
                          OFFSET -0.014 -0.0193 0.0113
                        }
                      }
                    }
                  }
                }
                JOINT rCarpal2
                {
                  OFFSET -2.0956 0.66 -0.3894
                  CHANNELS 3 Zrotation Xrotation Yrotation
                  JOINT rRing1
                  {
                    OFFSET -5.0395 -0.09 2.4971
                    CHANNELS 3 Zrotation Xrotation Yrotation
                    JOINT rRing2
                    {
                      OFFSET -3.7921 -1.552 1.4806
                      CHANNELS 3 Zrotation Xrotation Yrotation
                      JOINT rRing2_End
                      {
                        OFFSET -1.4655 -1.808 0.9609
                        CHANNELS 3 Zrotation Xrotation Yrotation
                        End Site
                        {
                          OFFSET -0.0147 -0.0181 0.0096
                        }
                      }
                    }
                  }
                  JOINT rPinky1
                  {
                    OFFSET -4.9141 -1.269 0.3592
                    CHANNELS 3 Zrotation Xrotation Yrotation
                    JOINT rPinky2
                    {
                      OFFSET -3.1477 -1.685 0.8462
                      CHANNELS 3 Zrotation Xrotation Yrotation
                      JOINT rPinky2_End
                      {
                        OFFSET -0.8055 -1.585 0.7955
                        CHANNELS 3 Zrotation Xrotation Yrotation
                        End Site
                        {
                          OFFSET -0.0081 -0.0158 0.008
                        }
                      }
                    }
                  }
                }
              }
            }
          }
        }
      }
    }
  }
  JOINT lThigh
  {
    OFFSET 8.367 -8.2066 0.5982
    CHANNELS 3 Zrotation Xrotation Yrotation
    JOINT lShin
    {
      OFFSET 2.1923 -43.463 -0.4932
      CHANNELS 3 Zrotation Xrotation Yrotation
      JOINT lFoot
      {
        OFFSET 0.7333 -45.8593 -2.6451
        CHANNELS 3 Zrotation Xrotation Yrotation
        End Site
        {
          OFFSET 2.6618 -4.2699 12.3931
        }
      }
    }
  }
  JOINT rThigh
  {
    OFFSET -8.367 -8.2066 0.5982
    CHANNELS 3 Zrotation Xrotation Yrotation
    JOINT rShin
    {
      OFFSET -2.1923 -43.463 -0.4931
      CHANNELS 3 Zrotation Xrotation Yrotation
      JOINT rFoot
      {
        OFFSET -0.7333 -45.8593 -2.6451
        CHANNELS 3 Zrotation Xrotation Yrotation
        End Site
        {
          OFFSET -2.6618 -4.2699 12.3931
        }
      }
    }
  }
}
MOTION
Frames:	4
Frame Time:	0.0333333
0 91.7903 2.51682 0 0 -0 0 0 -0 0 0 -0 0 0 -0 0 0 -0 0 0 -0 0 0 -0 1.66051 0.0835086 5.75766 -0.0175111 0.895433 15.7816 7.95139e-016 -1.98785e-016 -0 5.46658e-016 -3.97569e-016 -0 5.96354e-016 0 -0 3.97569e-016 1.98785e-016 9.54166e-015 1.49089e-016 -3.97569e-016 -0 6.4605e-016 0 3.18055e-015 5.96354e-016 0 3.18055e-015 8.94531e-016 -1.98785e-016 6.36111e-015 6.4605e-016 0 3.18055e-015 5.96354e-016 0 3.18055e-015 8.94531e-016 -1.98785e-016 6.36111e-015 1.49089e-016 -3.97569e-016 -0 6.4605e-016 0 3.18055e-015 5.96354e-016 0 3.18055e-015 8.94531e-016 -1.98785e-016 6.36111e-015 6.4605e-016 0 3.18055e-015 5.96354e-016 0 3.18055e-015 8.94531e-016 -1.98785e-016 6.36111e-015 0 0 -0 -1.4496 0.0636048 -5.0245 -1.74811 1.20616 -16.8394 -1.19271e-015 1.98785e-016 -3.18055e-015 -3.97569e-016 1.98785e-016 -3.18055e-015 -2.98177e-016 1.98785e-016 -3.18055e-015 -2.98177e-016 3.97569e-016 -0 4.96962e-016 0 -6.36111e-015 -9.93923e-017 3.97569e-016 -0 -8.94531e-016 5.96354e-016 -0 -3.97569e-016 3.97569e-016 -0 -9.93923e-017 3.97569e-016 -0 -8.94531e-016 5.96354e-016 -0 -3.97569e-016 3.97569e-016 -0 4.96962e-016 0 -6.36111e-015 -9.93923e-017 3.97569e-016 -0 -8.94531e-016 5.96354e-016 -0 -3.97569e-016 3.97569e-016 -0 -9.93923e-017 3.97569e-016 -0 -8.94531e-016 5.96354e-016 -0 -3.97569e-016 3.97569e-016 -0 -4.66111 -0.998717 0.12318 0.00986924 1.54847 0.176523 4.65186 -0.572283 -0.254274 4.66111 -0.998765 -0.123176 -0.00986867 1.54869 -0.176537 -4.65186 -0.572453 0.25427 
1.16907 29.1848 6.43449 0 30.7312 -0 -0.303685 10.0669 -0.307486 -0.564907 20.1352 -0.573403 -0.564907 20.1352 -0.573402 3.70993e-007 -2.88979e-005 1.37866e-006 -1.85689e-007 -5.55509e-010 -4.39569e-007 -8.5376 0.979411 -29.8941 -50.4545 -15.7699 -59.3446 0.0277592 -21.0418 10.1379 26.3196 -6.33553 5.02291 -1.59028e-015 0 -6.36111e-015 -1.1936e-007 -1.41902e-006 -9.11533e-007 7.95139e-016 3.18055e-015 9.54166e-015 -4.77083e-015 -1.59028e-015 -6.36111e-015 -6.36111e-015 4.77083e-015 9.54166e-015 -1.1936e-007 -1.41902e-006 -9.11533e-007 -1.19271e-015 1.59028e-015 3.18055e-015 -6.36111e-015 4.77083e-015 9.54166e-015 -1.1936e-007 -1.41902e-006 -9.11533e-007 -1.19271e-015 1.59028e-015 3.18055e-015 -4.77083e-015 -1.59028e-015 -6.36111e-015 -6.36111e-015 4.77083e-015 9.54166e-015 -1.1936e-007 -1.41902e-006 -9.11533e-007 -1.19271e-015 1.59028e-015 3.18055e-015 -6.36111e-015 4.77083e-015 9.54166e-015 -1.1936e-007 -1.41902e-006 -9.11533e-007 -1.19271e-015 1.59028e-015 3.18055e-015 8.61311 0.770323 30.2656 33.158 -3.95207 63.1334 -4.5263 -20.7796 -15.3682 -27.5191 -6.65 -4.87233 1.70787e-007 1.44717e-006 -8.1834e-007 3.50103e-007 -8.1834e-007 -1.44717e-006 6.91678e-007 2.076e-006 -3.08385e-006 -3.77691e-015 6.36111e-015 4.17448e-015 1.70787e-007 1.44717e-006 -8.1834e-007 3.50103e-007 -8.1834e-007 -1.44717e-006 6.91678e-007 2.076e-006 -3.08385e-006 1.70787e-007 1.44717e-006 -8.1834e-007 3.50103e-007 -8.1834e-007 -1.44717e-006 6.91678e-007 2.076e-006 -3.08385e-006 -3.77691e-015 6.36111e-015 4.17448e-015 1.70787e-007 1.44717e-006 -8.1834e-007 3.50103e-007 -8.1834e-007 -1.44717e-006 6.91678e-007 2.076e-006 -3.08385e-006 1.70787e-007 1.44717e-006 -8.1834e-007 3.50103e-007 -8.1834e-007 -1.44717e-006 6.91678e-007 2.076e-006 -3.08385e-006 65.6669 -76.5813 69.8205 145.981 36.6001 -143.183 -43.6983 57.9115 38.8166 -65.1691 -76.4727 -69.0552 -145.785 36.6359 143.092 44.4835 58.4055 -39.1886 
1.08334 33.319 6.37171 0 26.3333 -0 -0.29949 9.89019 -0.269399 -0.563855 19.7816 -0.496768 -0.563855 19.7816 -0.496767 -6.40315e-006 9.69505e-005 4.84443e-007 -3.40019e-007 9.58158e-006 -8.27938e-008 -8.38994 0.919337 -25.8629 -44.7224 -13.3459 -56.3058 0.105546 -19.0401 9.96009 24.2416 -5.13133 5.5912 -5.1684e-015 0 -4.77083e-015 7.95139e-016 3.18055e-015 -3.18055e-015 7.15625e-015 0 -1.59028e-015 -4.77083e-015 -3.18055e-015 -6.36111e-015 -3.18055e-015 4.77083e-015 6.36111e-015 2.78299e-015 3.18055e-015 -0 1.19271e-015 1.59028e-015 3.18055e-015 -3.18055e-015 4.77083e-015 6.36111e-015 2.78299e-015 3.18055e-015 -0 1.19271e-015 1.59028e-015 3.18055e-015 -4.77083e-015 -3.18055e-015 -6.36111e-015 -3.18055e-015 4.77083e-015 6.36111e-015 2.78299e-015 3.18055e-015 -0 1.19271e-015 1.59028e-015 3.18055e-015 -3.18055e-015 4.77083e-015 6.36111e-015 2.78299e-015 3.18055e-015 -0 1.19271e-015 1.59028e-015 3.18055e-015 8.44509 0.736822 26.1821 30.3141 -2.86739 60.4027 -4.32012 -18.7713 -15.0032 -25.271 -5.37202 -5.42919 -3.00026e-006 -1.28445e-006 -5.55639e-007 1.39149e-014 6.36111e-015 3.97569e-015 1.17283e-014 3.18055e-015 2.38542e-015 -3.57812e-015 -6.36111e-015 1.98785e-015 -3.00026e-006 -1.28445e-006 -5.55639e-007 1.43125e-014 6.36111e-015 3.18055e-015 9.14409e-015 3.18055e-015 1.98785e-015 -3.00026e-006 -1.28445e-006 -5.55639e-007 1.43125e-014 6.36111e-015 3.18055e-015 9.14409e-015 3.18055e-015 1.98785e-015 -3.57812e-015 -6.36111e-015 1.98785e-015 -3.00026e-006 -1.28445e-006 -5.55639e-007 1.43125e-014 6.36111e-015 3.18055e-015 9.14409e-015 3.18055e-015 1.98785e-015 -3.00026e-006 -1.28445e-006 -5.55639e-007 1.43125e-014 6.36111e-015 3.18055e-015 9.14409e-015 3.18055e-015 1.98785e-015 47.559 -70.0234 50.5002 142.135 46.2135 -142.607 -31.6211 55.4116 29.009 -47.4287 -69.9023 -50.1547 -141.933 46.2337 142.489 32.1341 55.8769 -29.1788 
1.08256 33.0518 6.55093 0 24.1929 -0 -0.306227 10.3768 -0.2614 -0.577995 20.7548 -0.47738 -0.577996 20.7548 -0.47738 4.71156e-006 1.62212e-005 -3.94968e-008 -8.55976e-008 3.03471e-006 3.66425e-007 -8.77228 0.896121 -24.0152 -43.6991 -10.2792 -57.6911 0.042273 -18.5569 9.35735 23.989 -4.36734 6.58223 6.61794e-006 -3.45929e-007 3.22925e-006 -4.77083e-015 3.18055e-015 1.59028e-015 -6.61794e-006 3.4593e-007 -3.22925e-006 1.19271e-015 3.18055e-015 -0 6.61794e-006 -3.45929e-007 3.22925e-006 -9.54166e-015 6.36111e-015 -3.18055e-015 -6.61794e-006 3.4593e-007 -3.22925e-006 6.61794e-006 -3.45929e-007 3.22925e-006 -9.54166e-015 6.36111e-015 -3.18055e-015 -6.61794e-006 3.4593e-007 -3.22925e-006 1.19271e-015 3.18055e-015 -0 6.61794e-006 -3.45929e-007 3.22925e-006 -9.54166e-015 6.36111e-015 -3.18055e-015 -6.61794e-006 3.4593e-007 -3.22925e-006 6.61794e-006 -3.45929e-007 3.22925e-006 -9.54166e-015 6.36111e-015 -3.18055e-015 -6.61794e-006 3.4593e-007 -3.22925e-006 8.82006 0.728362 24.3089 30.0966 -1.61519 62.2489 -4.25956 -18.3051 -14.5314 -24.9397 -4.55072 -6.41417 1.98785e-015 0 -7.95139e-016 -9.93923e-017 0 1.19271e-015 1.2921e-015 0 -7.95139e-016 1.59028e-015 0 -1.98785e-016 -1.49089e-015 0 3.37934e-015 -9.93923e-017 0 -2.18663e-015 1.2921e-015 3.18055e-015 -3.57812e-015 -1.49089e-015 0 3.37934e-015 -9.93923e-017 0 -2.18663e-015 1.2921e-015 3.18055e-015 -3.57812e-015 1.59028e-015 0 -1.98785e-016 -1.49089e-015 0 3.37934e-015 -9.93923e-017 0 -2.18663e-015 1.2921e-015 3.18055e-015 -3.57812e-015 -1.49089e-015 0 3.37934e-015 -9.93923e-017 0 -2.18663e-015 1.2921e-015 3.18055e-015 -3.57812e-015 47.15 -67.5913 49.7176 142.199 46.18 -142.727 -28.8234 55.4854 27.1769 -47.0519 -67.4795 -49.4182 -141.999 46.1998 142.611 29.2693 55.9198 -27.3043 
